<svg width="43" height="43" viewBox="0 0 43 43" fill="none" xmlns="http://www.w3.org/2000/svg">
<path d="M-8.69144e-08 19.2176C-8.69144e-08 29.8078 8.56681 38.4352 19.1842 38.4352H38.3684V19.2176C38.3684 8.58173 29.756 0 19.1842 0C8.61238 0 -8.69144e-08 8.58173 -8.69144e-08 19.2176Z" transform="translate(4.63159)" fill="#67C18E"/>
<path d="M23.0576 17.9851L23.0571 14.2417H6.33398C5.19434 14.2417 4.2832 13.3289 4.2832 12.1875C4.2832 11.0464 5.19434 10.1335 6.28809 10.1792H23.0571L23.0576 7.76001H18.4551C17.3159 7.76001 16.4043 6.84717 16.4043 5.70605C16.4043 4.5647 17.3159 3.65186 18.4551 3.65186H23.0117C23.0117 2.41943 22.875 1.18677 22.6475 0H0V17.9851H4.69238V27.6624L14.3525 17.9851H23.0576Z" transform="translate(19.9424 15.3376)" fill="#67EC8E"/>
<path d="M8.88916 10.8574H0V0H19.8457V10.8574H15.1963V17.2002L8.88916 10.8574Z" transform="translate(0 3.96924)" fill="#424651"/>
<path d="M0 1.75708C0 2.70312 0.761719 3.51392 1.74707 3.51392C2.68799 3.51392 3.49414 2.74805 3.49414 1.75708C3.49414 0.811035 2.73291 0 1.74707 0C0.761719 0 0 0.811035 0 1.75708Z" transform="translate(3.10205 7.69824)" fill="white"/>
<path d="M4.92627 1.75708C4.92627 2.70312 5.68799 3.51392 6.67334 3.51392C7.61426 3.51392 8.42041 2.74805 8.42041 1.75708C8.42041 0.811035 7.65918 0 6.67334 0C5.73242 0 4.92627 0.811035 4.92627 1.75708Z" transform="translate(3.10205 7.69824)" fill="white"/>
<path d="M11.6465 3.51392C10.6611 3.51392 9.89941 2.70312 9.89941 1.75708C9.89941 0.811035 10.7056 0 11.6465 0C12.6323 0 13.3936 0.811035 13.3936 1.75708C13.3936 2.74805 12.5874 3.51392 11.6465 3.51392Z" transform="translate(3.10205 7.69824)" fill="white"/>
<path d="M8.52125 4.10827H2.05057C0.911363 4.10827 -6.95315e-07 3.19532 -6.95315e-07 2.05414C-6.95315e-07 0.91295 0.911363 3.48263e-07 2.05057 3.48263e-07H8.52125C9.66045 3.48263e-07 10.5718 0.91295 10.5718 2.05414C10.5718 3.19532 9.66045 4.10827 8.52125 4.10827Z" transform="translate(24.179 19.0349)" fill="white"/>
</svg>
