<?xml version="1.0" encoding="UTF-8"?> <svg xmlns="http://www.w3.org/2000/svg" width="169" height="37" viewBox="0 0 169 37" fill="none"><rect width="169" height="37" fill="black" fill-opacity="0"></rect><path d="M117.823 25.0113C116.047 26.79 116.041 29.6805 117.823 31.4592C119.599 33.2379 122.485 33.2379 124.26 31.4592L143.943 11.7449C145.719 9.96613 145.725 7.07568 143.943 5.29694C142.167 3.51821 139.282 3.51821 137.506 5.29694L117.823 25.0113Z" fill="#999CA2"></path><path d="M124.326 5.58814C122.55 3.80941 119.664 3.80371 117.888 5.58814C116.112 7.36688 116.112 10.2573 117.888 12.0361L137.571 31.7504C139.347 33.5291 142.233 33.5348 144.009 31.7504C145.785 29.9717 145.785 27.0812 144.009 25.3025L124.326 5.58814Z" fill="#999CA2"></path><path fill-rule="evenodd" clip-rule="evenodd" d="M108.168 4.62476L108.117 4.60766C106.022 3.84372 103.7 4.92692 102.937 7.02492L99.3739 16.8365L95.8107 7.02492C95.2073 5.37161 93.6421 4.34541 91.9743 4.36252C90.3123 4.34541 88.7413 5.37161 88.1379 7.02492L84.5463 16.9106L80.9546 7.02492C80.1919 4.92692 77.8696 3.84372 75.7749 4.60766L75.7237 4.62476C73.6234 5.38871 72.5476 7.71475 73.3103 9.81275L80.6871 30.12C81.2905 31.7847 82.8728 32.8109 84.552 32.7824C86.2254 32.8109 87.8078 31.7847 88.4168 30.12L91.98 20.3084L95.5432 30.12C96.1465 31.7733 97.7118 32.7995 99.3796 32.7824C101.042 32.7995 102.613 31.7733 103.216 30.12L110.593 9.81275C111.344 7.71475 110.263 5.39441 108.168 4.62476Z" fill="white"></path><path fill-rule="evenodd" clip-rule="evenodd" d="M58.2834 4.24707C54.4356 4.24707 50.8212 5.73505 48.0948 8.43166C45.3626 11.1397 43.8542 14.7485 43.8542 18.5853C43.8542 22.4221 45.3626 26.0309 48.0948 28.7389C50.8155 31.4355 54.4356 32.9235 58.2834 32.9235C62.1312 32.9235 65.7456 31.4355 68.472 28.7389C71.2099 26.0309 72.7126 22.4221 72.7126 18.5853C72.7126 14.7485 71.2042 11.1397 68.472 8.43166C65.7456 5.73505 62.1312 4.24707 58.2834 4.24707ZM58.2834 24.771C54.817 24.771 51.9938 21.9945 51.9938 18.5853C51.9938 15.176 54.817 12.3996 58.2834 12.3996C61.7498 12.3996 64.573 15.176 64.573 18.5853C64.573 21.9945 61.7498 24.771 58.2834 24.771Z" fill="white"></path><path fill-rule="evenodd" clip-rule="evenodd" d="M40.4138 24.7423H31.5343V8.32316C31.5343 6.08833 29.7243 4.27539 27.493 4.27539H27.4361C25.2048 4.27539 23.3948 6.08833 23.3948 8.32316V28.79V28.847C23.3948 29.7079 23.6623 30.5004 24.1177 31.156C24.8462 32.205 26.0586 32.8948 27.4361 32.8948H27.493H40.4138C42.645 32.8948 44.4551 31.0819 44.4551 28.847V28.79C44.4551 26.5552 42.645 24.7423 40.4138 24.7423Z" fill="white"></path><path fill-rule="evenodd" clip-rule="evenodd" d="M17.5882 4.33301H4.09822H4.0413C1.81005 4.33301 0 6.14595 0 8.38077V28.9047C0 31.1395 1.81005 32.9524 4.0413 32.9524H4.09822C6.32948 32.9524 8.13952 31.1395 8.13952 28.9047V22.5195H12.6362C14.8674 22.5195 16.6775 20.7065 16.6775 18.4717V18.4147C16.6775 16.1799 14.8674 14.3669 12.6362 14.3669H8.13952V12.4856H17.5882C19.8195 12.4856 21.6295 10.6726 21.6295 8.43779V8.38077C21.6295 6.14595 19.8195 4.33301 17.5882 4.33301Z" fill="white"></path><path d="M167.537 11.2938C166.604 9.08752 165.272 7.10924 163.57 5.41602C161.874 3.7171 159.893 2.38875 157.69 1.45378C155.413 0.490293 152.989 0 150.495 0C148.002 0 145.578 0.490293 143.295 1.45378C141.092 2.38305 139.094 3.7114 137.398 5.40462C135.702 7.10354 134.387 9.08752 133.454 11.2938C132.486 13.58 131.997 16.0029 131.997 18.5C131.997 20.9971 132.486 23.42 133.454 25.7062C134.387 27.9125 135.713 29.8965 137.41 31.5954C139.106 33.2943 141.092 34.617 143.295 35.5462C145.578 36.5097 148.002 37 150.495 37C152.989 37 155.413 36.5097 157.696 35.5462C159.899 34.617 161.879 33.2829 163.576 31.584C165.272 29.8851 166.609 27.9068 167.543 25.7062C168.511 23.42 169 20.9971 169 18.5C168.994 16.0029 168.505 13.58 167.537 11.2938ZM150.495 27.8783C147.985 27.8783 145.691 26.9034 144.001 25.2957L137.21 18.4943L143.944 11.7499C145.635 10.1137 147.957 9.12173 150.495 9.12173C155.675 9.12173 159.887 13.3291 159.887 18.5C159.887 23.6709 155.675 27.8783 150.495 27.8783Z" fill="#999CA2"></path><path d="M144.001 25.2962L137.21 18.4948L143.944 11.7504C145.72 9.97171 145.726 7.08126 143.944 5.30252C142.299 3.64921 139.704 3.52949 137.916 4.93765C137.774 5.05168 137.637 5.1714 137.506 5.30252L130.773 12.0469L124.335 18.4948L130.773 24.9427L137.563 31.7441C137.683 31.8638 137.802 31.9722 137.928 32.0748C139.715 33.5172 142.339 33.4088 144.001 31.7441C145.783 29.9654 145.783 27.0806 144.001 25.2962Z" fill="white"></path></svg> 