<?xml version="1.0" encoding="utf-8"?>
<svg width="36" height="36" viewBox="0 0 36 36" fill="none" xmlns="http://www.w3.org/2000/svg">
<path d="M18 36C27.9411 36 36 27.9411 36 18V0H18C8.05887 0 0 8.05888 0 18C0 27.9411 8.05887 36 18 36Z" fill="#4ED5E9"/>
<path fill-rule="evenodd" clip-rule="evenodd" d="M18.5 5.5C16.652 5.5 15.1538 6.99812 15.1538 8.84615C15.1538 8.88965 15.1547 8.93296 15.1563 8.97606C16.1921 8.56944 17.32 8.34615 18.5 8.34615C19.68 8.34615 20.8079 8.56944 21.8437 8.97606C21.8453 8.93296 21.8462 8.88965 21.8462 8.84615C21.8462 6.99812 20.348 5.5 18.5 5.5ZM22.8084 9.42142C22.8333 9.23319 22.8462 9.04118 22.8462 8.84615C22.8462 6.44584 20.9003 4.5 18.5 4.5C16.0997 4.5 14.1538 6.44584 14.1538 8.84615C14.1538 9.04118 14.1667 9.23319 14.1916 9.42142C12.5921 10.2762 11.2762 11.5921 10.4214 13.1916C10.2332 13.1667 10.0412 13.1538 9.84615 13.1538C7.44584 13.1538 5.5 15.0997 5.5 17.5C5.5 19.9003 7.44584 21.8462 9.84615 21.8462C10.0412 21.8462 10.2332 21.8333 10.4214 21.8084C11.2762 23.4079 12.5921 24.7238 14.1916 25.5786C14.1667 25.7668 14.1538 25.9588 14.1538 26.1538C14.1538 28.5542 16.0997 30.5 18.5 30.5C20.9003 30.5 22.8462 28.5542 22.8462 26.1538C22.8462 25.9588 22.8333 25.7668 22.8084 25.5786C24.4079 24.7238 25.7238 23.4079 26.5786 21.8084C26.7668 21.8333 26.9588 21.8462 27.1538 21.8462C29.5542 21.8462 31.5 19.9003 31.5 17.5C31.5 15.0997 29.5542 13.1538 27.1538 13.1538C26.9588 13.1538 26.7668 13.1667 26.5786 13.1916C25.7238 11.5921 24.4079 10.2762 22.8084 9.42142ZM21.6502 9.97699C20.681 9.57065 19.6167 9.34615 18.5 9.34615C17.3833 9.34615 16.319 9.57065 15.3498 9.97699C15.8134 11.2685 17.0488 12.1923 18.5 12.1923C19.9512 12.1923 21.1866 11.2685 21.6502 9.97699ZM14.4485 10.4224C15.0796 12.0435 16.6556 13.1923 18.5 13.1923C20.3444 13.1923 21.9204 12.0435 22.5515 10.4224C23.8091 11.1438 24.8562 12.1909 25.5776 13.4485C23.9565 14.0796 22.8077 15.6556 22.8077 17.5C22.8077 19.3444 23.9565 20.9204 25.5776 21.5515C24.8562 22.8091 23.8091 23.8562 22.5515 24.5776C21.9204 22.9565 20.3444 21.8077 18.5 21.8077C16.6556 21.8077 15.0796 22.9565 14.4485 24.5776C13.1909 23.8562 12.1438 22.8091 11.4224 21.5515C13.0435 20.9204 14.1923 19.3444 14.1923 17.5C14.1923 15.6556 13.0435 14.0796 11.4224 13.4485C12.1438 12.1909 13.1909 11.1438 14.4485 10.4224ZM9.97606 14.1563C9.93296 14.1547 9.88965 14.1538 9.84615 14.1538C7.99812 14.1538 6.5 15.652 6.5 17.5C6.5 19.348 7.99812 20.8462 9.84615 20.8462C9.88965 20.8462 9.93296 20.8453 9.97606 20.8437C9.56944 19.8079 9.34615 18.68 9.34615 17.5C9.34615 16.32 9.56944 15.1921 9.97606 14.1563ZM10.977 20.6502C10.5707 19.681 10.3462 18.6167 10.3462 17.5C10.3462 16.3833 10.5707 15.319 10.977 14.3498C12.2685 14.8134 13.1923 16.0488 13.1923 17.5C13.1923 18.9512 12.2685 20.1866 10.977 20.6502ZM15.1563 26.0239C15.1547 26.067 15.1538 26.1103 15.1538 26.1538C15.1538 28.0019 16.652 29.5 18.5 29.5C20.348 29.5 21.8462 28.0019 21.8462 26.1538C21.8462 26.1103 21.8453 26.067 21.8437 26.0239C20.8079 26.4306 19.68 26.6538 18.5 26.6538C17.32 26.6538 16.1921 26.4306 15.1563 26.0239ZM21.6502 25.023C20.681 25.4293 19.6167 25.6538 18.5 25.6538C17.3833 25.6538 16.319 25.4293 15.3498 25.023C15.8134 23.7315 17.0488 22.8077 18.5 22.8077C19.9512 22.8077 21.1866 23.7315 21.6502 25.023ZM27.0239 20.8437C27.067 20.8453 27.1103 20.8462 27.1538 20.8462C29.0019 20.8462 30.5 19.348 30.5 17.5C30.5 15.652 29.0019 14.1538 27.1538 14.1538C27.1103 14.1538 27.067 14.1547 27.0239 14.1563C27.4306 15.1921 27.6538 16.32 27.6538 17.5C27.6538 18.68 27.4306 19.8079 27.0239 20.8437ZM26.023 14.3498C26.4293 15.319 26.6538 16.3833 26.6538 17.5C26.6538 18.6167 26.4293 19.681 26.023 20.6502C24.7315 20.1866 23.8077 18.9512 23.8077 17.5C23.8077 16.0488 24.7315 14.8134 26.023 14.3498Z" fill="white"/>
</svg>
