<?xml version="1.0" encoding="utf-8"?>
<svg width="36" height="36" viewBox="0 0 36 36" fill="none" xmlns="http://www.w3.org/2000/svg">
<path d="M18 36C27.9411 36 36 27.9411 36 18V0H18C8.05887 0 0 8.05888 0 18C0 27.9411 8.05887 36 18 36Z" fill="#4ED5E9"/>
<path fill-rule="evenodd" clip-rule="evenodd" d="M11.8395 9.09964C10.2465 10.6527 9.29046 12.665 9.29046 14.5393V22.6859H7.11604C6.18075 22.6859 5.49976 21.8563 5.49976 20.958V17.8324C5.49976 16.9338 6.18078 16.1045 7.11604 16.1045H8.29046V14.5393C8.29046 12.3392 9.39958 10.0817 11.1414 8.3836C12.8882 6.68065 15.3115 5.49976 17.9998 5.49976C20.6881 5.49976 23.1113 6.68065 24.8581 8.3836C26.5999 10.0817 27.7091 12.3392 27.7091 14.5393V16.1045H28.3253C29.2606 16.1045 29.9416 16.9339 29.9416 17.8324V20.9579C29.9416 21.8564 29.2606 22.6859 28.3253 22.6859H27.6996C27.5026 26.308 24.5663 29.2197 20.934 29.3772C20.7246 30.0273 20.1131 30.5 19.395 30.5H17.7205C16.8304 30.5 16.1043 29.7738 16.1043 28.8837C16.1043 27.9936 16.8304 27.2675 17.7205 27.2675H19.395C20.1079 27.2675 20.7157 27.7334 20.9294 28.3763C24.1403 28.2162 26.7101 25.5472 26.7101 22.2978V20.5118H27.7101V21.6859H28.3253C28.618 21.6859 28.9416 21.399 28.9416 20.9579V17.8324C28.9416 17.3913 28.618 17.1045 28.3253 17.1045H27.7091V18.837H26.7091V14.5393C26.7091 12.6649 25.7531 10.6527 24.16 9.09964C22.572 7.55142 20.3905 6.49976 17.9998 6.49976C15.609 6.49976 13.4276 7.55142 11.8395 9.09964ZM19.9543 28.6266C19.856 28.4155 19.6412 28.2675 19.395 28.2675H17.7205C17.3827 28.2675 17.1043 28.5459 17.1043 28.8837C17.1043 29.2215 17.3827 29.5 17.7205 29.5H19.395C19.6412 29.5 19.856 29.352 19.9543 29.1409V28.6266ZM8.29046 17.1045H7.11604C6.82339 17.1045 6.49976 17.3913 6.49976 17.8324V20.958C6.49976 21.399 6.82341 21.6859 7.11604 21.6859H8.29046V17.1045ZM14.3732 11.8701C14.058 11.2239 13.8719 10.5623 13.8719 9.9067H14.8719C14.8719 10.7246 15.2831 11.6639 16.0415 12.6444C16.7932 13.6162 17.8475 14.5781 19.0374 15.4305C20.2258 16.2817 21.5337 17.0126 22.7809 17.5291C24.0356 18.0486 25.1944 18.3369 26.0928 18.3369V19.3369C25.8943 19.3369 25.6887 19.3255 25.4772 19.3036V20.5114C25.4772 21.5966 25.1927 22.8246 24.6864 23.9472C24.1807 25.0685 23.4363 26.123 22.4844 26.8292L21.8885 26.0261C22.6669 25.4486 23.3178 24.5496 23.7748 23.5361C24.2314 22.5238 24.4772 21.4355 24.4772 20.5114V19.1335C23.8098 18.9801 23.1066 18.7463 22.3983 18.453C21.0763 17.9055 19.7017 17.1364 18.4551 16.2434C17.2101 15.3516 16.0773 14.3251 15.2505 13.2562C15.1179 13.0848 14.9922 12.911 14.8746 12.7352C14.2334 13.1241 13.4732 13.8843 12.8251 14.8353C12.0522 15.9693 11.5239 17.2506 11.5239 18.2788V20.5114C11.5239 22.7682 13.137 25.5511 15.7537 26.7548L15.3358 27.6633C12.3712 26.2996 10.5239 23.1661 10.5239 20.5114V18.2788C10.5239 16.9628 11.1743 15.4818 11.9987 14.2721C12.6814 13.2704 13.5424 12.3688 14.3732 11.8701Z" fill="white"/>
</svg>
