<svg width="39" height="39" viewBox="0 0 39 39" fill="none" xmlns="http://www.w3.org/2000/svg">
<path d="M19.46 0H18.6873C16.4647 0 14.3375 0.379981 12.3628 1.0658C12.6586 1.91844 12.9829 2.99351 12.9829 3.92029C12.9829 8.68395 9.01457 12.5394 4.11141 12.5394C3.10979 12.5394 1.97462 12.3818 1.06839 12.0852C0.381569 13.9851 3.63893e-08 16.0333 3.63893e-08 18.1649V18.9156C3.63893e-08 28.9434 8.3659 37.0806 18.6969 37.0806H38.1569V18.1649C38.1569 8.12788 29.7815 0 19.46 0Z" transform="translate(0.842773)" fill="#424651"/>
<path d="M11.9145 2.85449C11.9145 1.91844 11.5806 0.852639 11.2945 0C6.03833 1.8443 1.86969 5.9036 -7.27786e-08 11.0194C0.915766 11.316 2.0414 11.4736 3.04302 11.4736C7.94618 11.4736 11.9145 7.61815 11.9145 2.85449Z" transform="translate(1.91162 1.06592)" fill="#CAD7E3"/>
<path d="M1.42008 0H0V11.9155H1.42008V0Z" transform="translate(7.49731 7.57227) scale(1.01432 0.985457) rotate(-45)" fill="#CAD7E3"/>
<path d="M1.42008 0H0V15.3293H1.42008V0Z" transform="translate(22.8074 22.436) scale(1.01432 0.985457) rotate(-45)" fill="#CAD7E3"/>
<path d="M13.881 0H0V1.42008H13.881V0Z" transform="matrix(0.670103 -0.742255 0.761283 0.648405 7.19434 31.0223)" fill="#CAD7E3"/>
<path d="M3.63445 7.06208C5.6417 7.06208 7.26889 5.48118 7.26889 3.53104C7.26889 1.5809 5.6417 0 3.63445 0C1.6272 0 0 1.5809 0 3.53104C0 5.48118 1.6272 7.06208 3.63445 7.06208Z" transform="translate(28.1445 26.7843)" fill="white"/>
<path d="M6 12C9.31371 12 12 9.31371 12 6C12 2.68629 9.31371 0 6 0C2.68629 0 0 2.68629 0 6C0 9.31371 2.68629 12 6 12Z" transform="translate(0 27)" fill="#888C96"/>
<path d="M2.91114e-07 11.0843C2.91114e-07 17.2011 5.10349 22.1686 11.4089 22.1686C17.7048 22.1686 22.8178 17.2104 22.8178 11.0843C22.8178 4.96755 17.7144 -2.82832e-07 11.4089 -2.82832e-07C5.10349 -2.82832e-07 2.91114e-07 4.95829 2.91114e-07 11.0843Z" transform="translate(8.35034 7.47925)" fill="#CAD7E3"/>
<path d="M-2.91114e-07 7.38645C-2.91114e-07 11.4643 3.4055 14.7729 7.60277 14.7729C11.8 14.7729 15.2055 11.4643 15.2055 7.38645C15.2055 3.30861 11.8 -1.41416e-07 7.60277 -1.41416e-07C3.4055 -1.41416e-07 -2.91114e-07 3.29935 -2.91114e-07 7.38645Z" transform="translate(12.1565 11.1769)" fill="white"/>
<path d="M0 3.69786C0 5.73678 1.69798 7.39572 3.80615 7.39572C5.90478 7.39572 7.6123 5.74605 7.6123 3.69786C7.6123 1.65894 5.91432 -5.65663e-07 3.80615 -5.65663e-07C1.70752 -5.65663e-07 0 1.64967 0 3.69786Z" transform="translate(15.9534 14.8655)" fill="#6F5FE8"/>
</svg>
