<?xml version="1.0" encoding="utf-8"?>
<svg width="36" height="36" viewBox="0 0 36 36" fill="none" xmlns="http://www.w3.org/2000/svg">
<path d="M18 36C27.9411 36 36 27.9411 36 18V0H18C8.05887 0 0 8.05888 0 18C0 27.9411 8.05887 36 18 36Z" fill="#4ED5E9"/>
<path fill-rule="evenodd" clip-rule="evenodd" d="M13.6768 10.5H9.84615C8.48962 10.5 7.42308 11.6379 7.42308 13V15.5H6.96154C6.13605 15.5 5.5 16.1902 5.5 17V19C5.5 19.8097 6.13605 20.5 6.96154 20.5H7.42308V23C7.42308 24.362 8.48962 25.5 9.84615 25.5H27.1538C28.5104 25.5 29.5769 24.362 29.5769 23V20.5H30.0385C30.8639 20.5 31.5 19.8097 31.5 19V17C31.5 16.1902 30.8639 15.5 30.0385 15.5H29.5769V13C29.5769 11.6379 28.5104 10.5 27.1538 10.5H23.3232L25.6363 7.29244L24.8252 6.70752L22.0903 10.5H14.9097L12.1748 6.70752L11.3637 7.29244L13.6768 10.5ZM29.5769 16.5V19.5H30.0385C30.2751 19.5 30.5 19.2948 30.5 19V17C30.5 16.7052 30.2751 16.5 30.0385 16.5H29.5769ZM7.42308 19.5V16.5H6.96154C6.72494 16.5 6.5 16.7052 6.5 17V19C6.5 19.2948 6.72494 19.5 6.96154 19.5H7.42308ZM9.84615 11.5C9.07851 11.5 8.42308 12.1529 8.42308 13V23C8.42308 23.8471 9.07851 24.5 9.84615 24.5H27.1538C27.9215 24.5 28.5769 23.8471 28.5769 23V13C28.5769 12.1529 27.9215 11.5 27.1538 11.5H9.84615ZM13.2115 14.5C12.7094 14.5 12.2692 14.929 12.2692 15.5C12.2692 16.0709 12.7094 16.5 13.2115 16.5C13.7137 16.5 14.1538 16.0709 14.1538 15.5C14.1538 14.929 13.7137 14.5 13.2115 14.5ZM11.2692 15.5C11.2692 14.4141 12.1205 13.5 13.2115 13.5C14.3025 13.5 15.1538 14.4141 15.1538 15.5C15.1538 16.5859 14.3025 17.5 13.2115 17.5C12.1205 17.5 11.2692 16.5859 11.2692 15.5ZM23.7885 14.5C23.2863 14.5 22.8462 14.929 22.8462 15.5C22.8462 16.0709 23.2863 16.5 23.7885 16.5C24.2906 16.5 24.7308 16.0709 24.7308 15.5C24.7308 14.929 24.2906 14.5 23.7885 14.5ZM21.8462 15.5C21.8462 14.4141 22.6975 13.5 23.7885 13.5C24.8795 13.5 25.7308 14.4141 25.7308 15.5C25.7308 16.5859 24.8795 17.5 23.7885 17.5C22.6975 17.5 21.8462 16.5859 21.8462 15.5ZM15.0557 19.7024C15.8741 20.8077 17.1184 21.5 18.5 21.5C19.8816 21.5 21.1259 20.8077 21.9443 19.7024L22.748 20.2975C21.7606 21.6309 20.2301 22.5 18.5 22.5C16.7699 22.5 15.2394 21.6309 14.252 20.2975L15.0557 19.7024Z" fill="white"/>
</svg>
