<?xml version="1.0" encoding="utf-8"?>
<svg width="36" height="36" viewBox="0 0 36 36" fill="none" xmlns="http://www.w3.org/2000/svg">
<path d="M18 36C27.9411 36 36 27.9411 36 18V0H18C8.05887 0 0 8.05888 0 18C0 27.9411 8.05887 36 18 36Z" fill="#4ED5E9"/>
<path fill-rule="evenodd" clip-rule="evenodd" d="M11.519 12.5H7.78067C6.61005 12.5 5.89058 13.7811 6.49984 14.7807L14.8621 28.5H21.138L29.5002 14.7807C30.1095 13.7811 29.39 12.5 28.2194 12.5H24.4811C24.2258 9.14378 21.4216 6.5 18 6.5C14.5784 6.5 11.7743 9.14378 11.519 12.5ZM12.5224 12.5H23.4776C23.225 9.69675 20.869 7.5 18 7.5C15.131 7.5 12.7751 9.69675 12.5224 12.5ZM23.4776 13.5H12.5224C12.7751 16.3033 15.131 18.5 18 18.5C20.869 18.5 23.225 16.3033 23.4776 13.5ZM24.4811 13.5C24.2258 16.8562 21.4216 19.5 18 19.5C14.5784 19.5 11.7743 16.8562 11.519 13.5H7.78067C7.39046 13.5 7.15064 13.927 7.35373 14.2602L15.4237 27.5H20.5764L28.6463 14.2602C28.8494 13.927 28.6096 13.5 28.2194 13.5H24.4811Z" fill="white"/>
</svg>
