<?xml version="1.0" encoding="utf-8"?>
<svg width="36" height="36" viewBox="0 0 36 36" fill="none" xmlns="http://www.w3.org/2000/svg">
<path d="M18 36C27.9411 36 36 27.9411 36 18V0H18C8.05887 0 0 8.05888 0 18C0 27.9411 8.05887 36 18 36Z" fill="#4ED5E9"/>
<path fill-rule="evenodd" clip-rule="evenodd" d="M9.38915 11.503C9.03159 10.7588 9.16125 9.83923 9.77814 9.22235C10.5592 8.4413 11.8255 8.4413 12.6066 9.22235L12.7958 9.41155C12.8834 9.08321 13.0561 8.77284 13.3137 8.51525C14.0947 7.7342 15.361 7.7342 16.1421 8.51525L23.4545 15.8277L23.8756 13.3172C24.0438 12.3147 25.0567 11.6899 26.0281 11.9894C26.8225 12.2344 27.41 12.8879 27.6061 13.6785C27.6538 13.8711 27.7048 14.0723 27.7576 14.281C28.1096 15.6715 28.5451 17.392 28.6731 19.0591C28.8196 20.9683 28.5763 22.9511 27.2054 24.322L24.9809 26.5465C22.4812 29.0462 18.4522 29.0843 15.9057 26.6607C13.7838 24.6413 11.9506 22.452 10.3168 20.0275C9.68652 19.0922 9.76351 17.8546 10.4905 17.0058L8.36392 14.8792C7.58287 14.0982 7.58287 12.8318 8.36392 12.0508C8.65501 11.7597 9.0135 11.5771 9.38915 11.503ZM10.4852 12.7579L17.2028 19.4754L17.9099 18.7683L10.4852 11.3437C10.0947 10.9531 10.0947 10.32 10.4852 9.92946C10.8758 9.53894 11.5089 9.53894 11.8995 9.92946L19.3241 17.3541L20.0312 16.647L14.0208 10.6366C13.6303 10.246 13.6303 9.61288 14.0208 9.22235C14.4113 8.83183 15.0445 8.83183 15.435 9.22235L24.1197 17.9071L24.8619 13.4826C24.93 13.0767 25.3401 12.8237 25.7334 12.945C26.1769 13.0818 26.5197 13.4524 26.6355 13.9192C26.685 14.1188 26.737 14.3247 26.7904 14.5359C27.1436 15.9331 27.5552 17.5615 27.676 19.1356C27.8157 20.9559 27.5531 22.5601 26.4983 23.6149L24.2738 25.8394C22.1588 27.9544 18.7495 27.9867 16.5951 25.9363C14.5278 23.9689 12.741 21.8355 11.1461 19.4686C10.7828 18.9296 10.8113 18.2227 11.2012 17.7165L15.0814 21.5967L15.7885 20.8896L9.07103 14.1721C8.6805 13.7816 8.68051 13.1484 9.07103 12.7579C9.46155 12.3674 10.0947 12.3674 10.4852 12.7579ZM5.99509 19.7291C6.05416 20.19 6.18774 20.6428 6.39562 21.0681C6.59878 21.4837 6.87327 21.8738 7.21982 22.2204C7.56638 22.567 7.95652 22.8415 8.37216 23.0446C8.79743 23.2525 9.25023 23.3861 9.71115 23.4451L9.58404 24.437C9.01653 24.3643 8.45814 24.1997 7.93302 23.943C7.41942 23.692 6.93845 23.3532 6.51271 22.9275C6.08699 22.5018 5.74824 22.0208 5.49721 21.5072C5.24052 20.9821 5.07593 20.4237 5.0032 19.8562L5.99509 19.7291ZM18.621 6.23836C19.1886 6.31108 19.747 6.47568 20.2721 6.73236C20.7857 6.9834 21.2666 7.32214 21.6924 7.74787C22.1181 8.1736 22.4568 8.65458 22.7079 9.16817C22.9646 9.69329 23.1291 10.2517 23.2019 10.8192L22.21 10.9463C22.1509 10.4854 22.0173 10.0326 21.8095 9.60731C21.6063 9.19167 21.3318 8.80153 20.9852 8.45497C20.6387 8.10842 20.2486 7.83393 19.8329 7.63078C19.4077 7.4229 18.9548 7.28931 18.4939 7.23025L18.621 6.23836ZM8.00101 19.6441C8.07327 20.0778 8.27634 20.4935 8.61156 20.8287C8.94678 21.1639 9.3624 21.367 9.79614 21.4392L9.63181 22.4256C8.99927 22.3203 8.39187 22.0232 7.90445 21.5358C7.41704 21.0484 7.11998 20.441 7.01461 19.8084L8.00101 19.6441ZM18.5733 8.24976C19.2058 8.35513 19.8132 8.65219 20.3006 9.13961C20.7881 9.62703 21.0851 10.2344 21.1905 10.867L20.2041 11.0313C20.1318 10.5976 19.9288 10.1819 19.5935 9.84672C19.2583 9.5115 18.8427 9.30842 18.409 9.23617L18.5733 8.24976Z" fill="white"/>
</svg>
