<?xml version="1.0" encoding="utf-8"?>
<svg width="36" height="36" viewBox="0 0 36 36" fill="none" xmlns="http://www.w3.org/2000/svg">
<path d="M18 35.8491C27.9411 35.8491 36 27.824 36 17.9245V0H18C8.05887 0 0 8.02509 0 17.9245C0 27.824 8.05887 35.8491 18 35.8491Z" fill="#4ED5E9"/>
<path d="M29.5112 14.2853H24.1833C23.9389 13.8529 23.4012 12.988 22.7658 12.5075C22.1303 12.027 18.5621 9.48048 17.2912 9.0961C17.0957 9.04805 16.9002 9 16.6558 9C15.5316 9 13.8208 9.67267 12.1589 10.2973C11.4745 10.5856 10.8391 10.8258 10.2525 11.018C9.27495 10.8258 8.24847 10.5856 6.83096 10.2012L6.58656 10.1532L6 10.6336V17.2643L6.4888 17.7447C7.41752 17.7447 8.49287 18.4174 9.95927 19.2823L10.4481 19.5706C10.4969 19.5706 10.4969 19.6186 10.5458 19.6186C10.888 19.8589 11.6212 20.3393 12.9898 20.5796V24.5195L13.4786 25H29.5112L30 24.5195V14.7658L29.5112 14.2853ZM11.1324 18.8979C11.0835 18.8499 11.0346 18.8498 10.9857 18.8018L10.4969 18.5135C9.12831 17.6486 8.05295 17.024 6.9776 16.8318V11.2583C8.29735 11.5946 9.27495 11.8348 10.2037 11.979H10.4481C11.0835 11.7868 11.7678 11.4985 12.501 11.2102C14.0163 10.6336 15.7271 9.96096 16.6558 9.96096C16.8024 9.96096 16.9002 9.96096 16.998 10.009C18.0244 10.3453 21.2994 12.5556 22.1792 13.2763C22.5214 13.5165 22.8147 13.9489 23.0591 14.2853H17.1935L16.9491 14.3333C16.6069 14.5255 16.4114 14.7177 16.3625 14.958C16.2159 15.3904 16.2159 16.1111 16.6069 16.6877C16.998 17.2643 17.7312 17.6006 18.7576 17.6486C20.0774 17.7447 21.446 18.1291 21.6904 18.9459C21.7882 19.2823 21.7882 19.5706 21.5927 19.7628C21.3483 20.0511 20.8595 20.2432 20.224 20.2432C19.9308 20.2432 19.6375 20.1952 19.3931 20.1471C18.5132 19.9069 17.6823 19.8108 16.6069 19.8108C16.2159 19.8108 15.8248 19.8108 15.3849 19.8589C12.5988 19.9069 11.5723 19.1862 11.1324 18.8979ZM29.0224 24.0871H14.0163V20.7237C14.2607 20.7237 14.554 20.7718 14.8473 20.7718C15.0428 20.7718 15.2383 20.7718 15.4827 20.7718C15.8737 20.7718 16.2159 20.7237 16.6069 20.7237C17.5845 20.7237 18.3666 20.8198 19.1487 21.012C19.4908 21.1081 19.8819 21.1562 20.2729 21.1562C21.2016 21.1562 21.9837 20.8198 22.4236 20.2913C22.668 19.955 22.9124 19.4264 22.668 18.6096C22.1792 16.976 19.6375 16.6877 18.8554 16.6396C18.3666 16.5916 17.7312 16.4955 17.4379 16.0631C17.2424 15.7748 17.2424 15.3423 17.2912 15.1982C17.2912 15.1982 17.2912 15.1982 17.3401 15.1502H23.9389H29.0713V24.0871H29.0224Z" fill="white"/>
</svg>
