<?xml version="1.0" encoding="utf-8"?>
<svg width="36" height="36" viewBox="0 0 36 36" fill="none" xmlns="http://www.w3.org/2000/svg">
<path d="M18 36C27.9411 36 36 27.9411 36 18V0H18C8.05887 0 0 8.05888 0 18C0 27.9411 8.05887 36 18 36Z" fill="#4ED5E9"/>
<path fill-rule="evenodd" clip-rule="evenodd" d="M18 7.5C12.7533 7.5 8.5 11.7533 8.5 17C8.5 22.2467 12.7533 26.5 18 26.5C20.4435 26.5 22.6714 25.5775 24.3547 24.0618L21.5195 21.2266C20.5658 22.0217 19.3387 22.5 18 22.5C14.9624 22.5 12.5 20.0376 12.5 17C12.5 13.9624 14.9624 11.5 18 11.5C21.0376 11.5 23.5 13.9624 23.5 17C23.5 18.3387 23.0217 19.5658 22.2266 20.5195L25.0618 23.3547C26.5775 21.6714 27.5 19.4435 27.5 17C27.5 11.7533 23.2467 7.5 18 7.5ZM25.7698 24.0627C27.4661 22.1977 28.5 19.7196 28.5 17C28.5 11.201 23.799 6.5 18 6.5C12.201 6.5 7.5 11.201 7.5 17C7.5 22.799 12.201 27.5 18 27.5C20.7196 27.5 23.1977 26.4661 25.0627 24.7698L27.6464 27.3536L28.3536 26.6464L25.7698 24.0627ZM21.516 19.8088C22.1318 19.039 22.5 18.0625 22.5 17C22.5 14.5147 20.4853 12.5 18 12.5C15.5147 12.5 13.5 14.5147 13.5 17C13.5 19.4853 15.5147 21.5 18 21.5C19.0625 21.5 20.039 21.1318 20.8088 20.516L18.6464 18.3536L19.3536 17.6464L21.516 19.8088Z" fill="white"/>
</svg>
