<?xml version="1.0" encoding="utf-8"?>
<svg width="36" height="36" viewBox="0 0 36 36" fill="none" xmlns="http://www.w3.org/2000/svg">
<path d="M18 35.8491C27.9411 35.8491 36 27.824 36 17.9245V0H18C8.05887 0 0 8.02509 0 17.9245C0 27.824 8.05887 35.8491 18 35.8491Z" fill="#4ED5E9"/>
<path fill-rule="evenodd" clip-rule="evenodd" d="M9.5 7.5H27.5V26.5H9.5V7.5ZM10.5 8.5V25.5H26.5V8.5H10.5ZM12 10H25V18H12V10ZM13 11V17H24V11H13ZM25 20.5H12V19.5H25V20.5ZM25 23.5H12V22.5H25V23.5Z" fill="white"/>
</svg>
