<?xml version="1.0" encoding="utf-8"?>
<svg width="36" height="36" viewBox="0 0 36 36" fill="none" xmlns="http://www.w3.org/2000/svg">
<path d="M18 36C27.9411 36 36 27.9411 36 18V0H18C8.05887 0 0 8.05888 0 18C0 27.9411 8.05887 36 18 36Z" fill="#4ED5E9"/>
<path fill-rule="evenodd" clip-rule="evenodd" d="M10.5 12.5C10.5 10.2909 12.2909 8.5 14.5 8.5C16.7091 8.5 18.5 10.2909 18.5 12.5C18.5 14.7091 16.7091 16.5 14.5 16.5C12.2909 16.5 10.5 14.7091 10.5 12.5ZM14.5 7.5C16.4791 7.5 18.1896 8.64985 19 10.3179C19.8104 8.64985 21.5209 7.5 23.5 7.5C26.2614 7.5 28.5 9.73858 28.5 12.5C28.5 14.3817 27.4605 16.0207 25.9244 16.8739C29.1575 17.9009 31.5 20.9269 31.5 24.5V25H22.5H15.5H6.5V24.5C6.5 20.9269 8.84252 17.9009 12.0756 16.8739C10.5395 16.0207 9.5 14.3817 9.5 12.5C9.5 9.73858 11.7386 7.5 14.5 7.5ZM16.5176 24H21.4824C21.3448 22.0506 20.4091 20.3217 19 19.1379C17.5909 20.3217 16.6552 22.0506 16.5176 24ZM18.1674 18.5364C16.6463 19.8975 15.6491 21.8319 15.5154 24H7.51758C7.77396 20.3674 10.8021 17.5 14.5 17.5C15.8447 17.5 17.1009 17.8792 18.1674 18.5364ZM19.8326 18.5364C21.3537 19.8975 22.3509 21.8319 22.4846 24H30.4824C30.226 20.3674 27.1979 17.5 23.5 17.5C22.1553 17.5 20.8991 17.8792 19.8326 18.5364ZM21.0756 16.8739C20.3305 17.1106 19.6327 17.4534 19 17.8847C18.3673 17.4534 17.6695 17.1106 16.9244 16.8739C17.8219 16.3754 18.5498 15.6087 19 14.6821C19.4502 15.6087 20.1781 16.3754 21.0756 16.8739ZM23.5 16.5C25.7091 16.5 27.5 14.7091 27.5 12.5C27.5 10.2909 25.7091 8.5 23.5 8.5C21.2909 8.5 19.5 10.2909 19.5 12.5C19.5 14.7091 21.2909 16.5 23.5 16.5Z" fill="white"/>
</svg>
