<?xml version="1.0" encoding="utf-8"?>
<svg width="36" height="36" viewBox="0 0 36 36" fill="none" xmlns="http://www.w3.org/2000/svg">
<path d="M18 36C27.9411 36 36 27.9411 36 18V0H18C8.05887 0 0 8.05888 0 18C0 27.9411 8.05887 36 18 36Z" fill="#4ED5E9"/>
<path fill-rule="evenodd" clip-rule="evenodd" d="M18 6.5C12.201 6.5 7.5 11.201 7.5 17C7.5 22.799 12.201 27.5 18 27.5C23.799 27.5 28.5 22.799 28.5 17C28.5 11.201 23.799 6.5 18 6.5ZM6.5 17C6.5 10.6487 11.6487 5.5 18 5.5C24.3513 5.5 29.5 10.6487 29.5 17C29.5 23.3513 24.3513 28.5 18 28.5C11.6487 28.5 6.5 23.3513 6.5 17ZM13 12.5C12.1716 12.5 11.5 13.1716 11.5 14C11.5 14.8284 12.1716 15.5 13 15.5C13.8284 15.5 14.5 14.8284 14.5 14C14.5 13.1716 13.8284 12.5 13 12.5ZM10.5 14C10.5 12.6193 11.6193 11.5 13 11.5C14.3807 11.5 15.5 12.6193 15.5 14C15.5 15.3807 14.3807 16.5 13 16.5C11.6193 16.5 10.5 15.3807 10.5 14ZM23 12.5C22.1716 12.5 21.5 13.1716 21.5 14C21.5 14.8284 22.1716 15.5 23 15.5C23.8284 15.5 24.5 14.8284 24.5 14C24.5 13.1716 23.8284 12.5 23 12.5ZM20.5 14C20.5 12.6193 21.6193 11.5 23 11.5C24.3807 11.5 25.5 12.6193 25.5 14C25.5 15.3807 24.3807 16.5 23 16.5C21.6193 16.5 20.5 15.3807 20.5 14ZM11.472 18.8349C12.4238 21.5562 14.99 23.5 18 23.5C21.01 23.5 23.5762 21.5562 24.528 18.8349L25.472 19.1651C24.386 22.2698 21.4535 24.5 18 24.5C14.5465 24.5 11.614 22.2698 10.528 19.1651L11.472 18.8349Z" fill="white"/>
</svg>
