<?xml version="1.0" encoding="utf-8"?>
<svg width="36" height="36" viewBox="0 0 36 36" fill="none" xmlns="http://www.w3.org/2000/svg">
<path d="M18 36C27.9411 36 36 27.9411 36 18V0H18C8.05887 0 0 8.05888 0 18C0 27.9411 8.05887 36 18 36Z" fill="#4ED5E9"/>
<path fill-rule="evenodd" clip-rule="evenodd" d="M12 11.5C8.96243 11.5 6.5 13.9624 6.5 17C6.5 20.0376 8.96243 22.5 12 22.5C15.0376 22.5 17.5 20.0376 17.5 17C17.5 13.9624 15.0376 11.5 12 11.5ZM12 10.5C14.7023 10.5 17.0194 12.149 18 14.4956C18.9806 12.149 21.2977 10.5 24 10.5C27.5899 10.5 30.5 13.4101 30.5 17C30.5 20.5899 27.5899 23.5 24 23.5C21.2977 23.5 18.9806 21.851 18 19.5044C17.0194 21.851 14.7023 23.5 12 23.5C8.41015 23.5 5.5 20.5899 5.5 17C5.5 13.4101 8.41015 10.5 12 10.5ZM24 22.5C20.9624 22.5 18.5 20.0376 18.5 17C18.5 13.9624 20.9624 11.5 24 11.5C27.0376 11.5 29.5 13.9624 29.5 17C29.5 20.0376 27.0376 22.5 24 22.5ZM11 19.7071L15.3536 15.3536L14.6465 14.6465L11 18.2929L9.35359 16.6465L8.64648 17.3536L11 19.7071ZM23.2929 17L21.6465 15.3536L22.3536 14.6465L24 16.2929L25.6464 14.6465L26.3535 15.3536L24.7071 17L26.3536 18.6465L25.6465 19.3536L24 17.7071L22.3535 19.3536L21.6464 18.6465L23.2929 17Z" fill="white"/>
</svg>
