<?xml version="1.0" encoding="utf-8"?>
<svg width="36" height="36" viewBox="0 0 36 36" fill="none" xmlns="http://www.w3.org/2000/svg">
<path d="M18 36C27.9411 36 36 27.9411 36 18V0H18C8.05887 0 0 8.05888 0 18C0 27.9411 8.05887 36 18 36Z" fill="#4ED5E9"/>
<path fill-rule="evenodd" clip-rule="evenodd" d="M18.5228 16.169C19.6007 16.729 19.6007 18.271 18.5228 18.831L14.1916 21.0816C13.1931 21.6004 12 20.8759 12 19.7506L12 15.2494C12 14.1241 13.1931 13.3996 14.1916 13.9184L18.5228 16.169ZM18.0617 17.9437C18.421 17.757 18.421 17.243 18.0617 17.0563L13.7305 14.8058C13.3977 14.6328 13 14.8743 13 15.2494L13 19.7506C13 20.1257 13.3977 20.3672 13.7305 20.1942L18.0617 17.9437Z" fill="white"/>
<path fill-rule="evenodd" clip-rule="evenodd" d="M7.5 12C7.5 11.1716 8.17157 10.5 9 10.5H22C22.8284 10.5 23.5 11.1716 23.5 12V23C23.5 23.8284 22.8284 24.5 22 24.5H9C8.17157 24.5 7.5 23.8284 7.5 23V12ZM9 11.5C8.72386 11.5 8.5 11.7239 8.5 12V23C8.5 23.2761 8.72386 23.5 9 23.5H22C22.2761 23.5 22.5 23.2761 22.5 23V12C22.5 11.7239 22.2761 11.5 22 11.5H9Z" fill="white"/>
<path fill-rule="evenodd" clip-rule="evenodd" d="M29.5 12.7662C29.5 12.3775 29.076 12.1375 28.7428 12.3374L25.2572 14.4287L24.7428 13.5713L28.2283 11.48C29.228 10.8801 30.5 11.6002 30.5 12.7662V22.2338C30.5 23.3998 29.228 24.1199 28.2283 23.52L24.7428 21.4287L25.2572 20.5713L28.7428 22.6626C29.076 22.8625 29.5 22.6225 29.5 22.2338V12.7662Z" fill="white"/>
</svg>
